<?xml version="1.0" encoding="UTF-8" standalone="no"?>
<!-- Created with Inkscape (http://www.inkscape.org/) -->

<svg
   xmlns:dc="http://purl.org/dc/elements/1.1/"
   xmlns:cc="http://creativecommons.org/ns#"
   xmlns:rdf="http://www.w3.org/1999/02/22-rdf-syntax-ns#"
   xmlns:svg="http://www.w3.org/2000/svg"
   xmlns="http://www.w3.org/2000/svg"
   xmlns:xlink="http://www.w3.org/1999/xlink"
   xmlns:sodipodi="http://sodipodi.sourceforge.net/DTD/sodipodi-0.dtd"
   xmlns:inkscape="http://www.inkscape.org/namespaces/inkscape"
   width="598.72351"
   height="142.98386"
   viewBox="0 0 158.41226 37.831147"
   version="1.1"
   id="svg8"
   inkscape:version="0.92.1 r15371"
   sodipodi:docname="JustinSanders.svg">
  <defs
     id="defs2">
    <linearGradient
       inkscape:collect="always"
       id="linearGradient5037">
      <stop
         style="stop-color:#612285;stop-opacity:1"
         offset="0"
         id="stop5033" />
      <stop
         style="stop-color:#f06080;stop-opacity:1"
         offset="1"
         id="stop5035" />
    </linearGradient>
    <linearGradient
       inkscape:collect="always"
       xlink:href="#linearGradient5037"
       id="linearGradient5096"
       gradientUnits="userSpaceOnUse"
       x1="25.568123"
       y1="28.224455"
       x2="162.254"
       y2="50.147076"
       gradientTransform="matrix(0.71263886,0,0,0.71263886,14.438095,75.133371)" />
    <linearGradient
       inkscape:collect="always"
       xlink:href="#linearGradient5037"
       id="linearGradient72"
       gradientUnits="userSpaceOnUse"
       gradientTransform="matrix(0.71263886,0,0,0.71263886,14.438095,75.133371)"
       x1="25.568123"
       y1="28.224455"
       x2="162.254"
       y2="50.147076" />
  </defs>
  <sodipodi:namedview
     id="base"
     pagecolor="#ffffff"
     bordercolor="#666666"
     borderopacity="1.0"
     inkscape:pageopacity="0.0"
     inkscape:pageshadow="2"
     inkscape:zoom="0.98994949"
     inkscape:cx="267.41916"
     inkscape:cy="76.052921"
     inkscape:document-units="px"
     inkscape:current-layer="layer1"
     showgrid="false"
     inkscape:window-width="1855"
     inkscape:window-height="1056"
     inkscape:window-x="1985"
     inkscape:window-y="24"
     inkscape:window-maximized="1"
     inkscape:measure-start="-163.645,247.487"
     inkscape:measure-end="425.274,630.335"
     units="px"
     fit-margin-top="0"
     fit-margin-left="0"
     fit-margin-right="0"
     fit-margin-bottom="0"
     showborder="true"
     borderlayer="false"
     inkscape:showpageshadow="true" />
  <metadata
     id="metadata5">
    <rdf:RDF>
      <cc:Work
         rdf:about="">
        <dc:format>image/svg+xml</dc:format>
        <dc:type
           rdf:resource="http://purl.org/dc/dcmitype/StillImage" />
        <dc:title></dc:title>
      </cc:Work>
    </rdf:RDF>
  </metadata>
  <g
     inkscape:label="Layer 1"
     inkscape:groupmode="layer"
     id="layer1"
     transform="translate(-15.550012,-90.122916)">
    <g
       aria-label="Sanders"
       style="font-style:normal;font-variant:normal;font-weight:normal;font-stretch:normal;font-size:36.20205307px;line-height:1.25;font-family:'Andale Mono';-inkscape-font-specification:'Andale Mono';letter-spacing:0px;word-spacing:0px;fill:#00dcd4;fill-opacity:1;stroke:none;stroke-width:0.18855235"
       id="text15650">
      <path
         sodipodi:type="inkscape:offset"
         inkscape:radius="0"
         inkscape:original="M 111.45508 90.123047 C 110.58623 90.123047 109.87346 90.593903 109.31836 91.535156 C 108.95634 92.114389 108.12359 95.275475 106.82031 101.01953 C 105.54117 106.76359 104.75837 110.04661 104.46875 110.86719 C 104.29981 110.69825 104.08189 110.38434 103.81641 109.92578 C 103.33371 109.12933 102.35699 108.29658 100.88477 107.42773 C 99.412549 106.55888 98.30091 106.125 97.552734 106.125 C 96.70802 106.125 95.646327 106.41295 94.367188 106.99219 C 93.088048 107.54729 91.773418 108.32103 90.421875 109.31055 C 89.094466 110.30007 87.862846 111.60368 86.728516 113.2207 C 85.594184 114.83772 84.83342 116.55122 84.447266 118.36133 C 84.278322 119.25431 84.195312 119.9541 84.195312 120.46094 C 84.195312 121.547 84.435275 122.48676 84.917969 123.2832 C 85.424797 124.05551 86.052605 124.63533 86.800781 125.02148 C 87.573092 125.38351 88.296885 125.64942 88.972656 125.81836 C 89.672563 125.9873 90.324367 126.07227 90.927734 126.07227 C 91.989661 126.07227 93.077303 125.90233 94.1875 125.56445 C 95.297696 125.22657 96.298422 124.77971 97.191406 124.22461 C 98.108525 123.66951 98.893285 123.16364 99.544922 122.70508 C 100.22069 122.22238 100.8485 121.72753 101.42773 121.2207 C 102.00697 120.71387 102.3079 120.44796 102.33203 120.42383 L 102.33203 120.60547 C 102.33203 120.99163 102.24707 121.80038 102.07812 123.03125 C 101.90918 124.23798 101.82422 125.12975 101.82422 125.70898 C 101.82422 127.20534 102.29507 127.95312 103.23633 127.95312 C 103.67075 127.95312 104.0586 127.78515 104.39648 127.44727 C 104.7585 127.13352 105.01144 126.81961 105.15625 126.50586 C 105.30106 126.19211 105.41002 125.89118 105.48242 125.60156 C 105.5307 125.36022 105.62668 124.45548 105.77148 122.88672 C 105.94042 121.31797 106.4223 118.66276 107.21875 114.92188 L 112.90234 90.123047 L 111.45508 90.123047 z M 31.515625 98.160156 C 28.933212 98.160156 27.110755 98.376122 26.048828 98.810547 C 23.852571 99.703528 21.83619 101.1161 20.001953 103.04688 C 18.19185 104.95351 17.287109 106.4491 17.287109 107.53516 C 17.287109 108.66949 18.2178 110.11903 20.076172 111.88086 C 21.958679 113.64269 23.502249 114.52344 24.708984 114.52344 C 25.336486 114.59584 26.350187 114.96876 27.75 115.64453 C 28.618849 116.05482 29.174669 116.35771 29.416016 116.55078 C 29.681498 116.74386 29.814453 116.98577 29.814453 117.27539 C 29.814453 117.46846 29.777482 117.70843 29.705078 117.99805 C 29.512 118.89103 29.270085 119.50782 28.980469 119.8457 C 28.690852 120.18359 28.015052 120.66547 26.953125 121.29297 C 26.277353 121.67913 25.601553 121.94504 24.925781 122.08984 C 24.274144 122.21052 23.297414 122.26953 21.994141 122.26953 L 20.183594 122.26953 C 19.845708 122.24539 19.544778 122.21038 19.279297 122.16211 C 19.013812 122.08971 18.85686 122.00474 18.808594 121.9082 C 18.760324 121.81166 18.699357 121.64369 18.626953 121.40234 C 18.554548 121.18513 18.519531 121.00418 18.519531 120.85938 C 18.519531 120.66629 18.796464 120.31542 19.351562 119.80859 C 19.930795 119.27763 20.220703 118.68679 20.220703 118.03516 C 20.220703 117.33525 19.845832 116.98437 19.097656 116.98438 C 18.059864 116.98438 17.203115 117.42022 16.527344 118.28906 C 15.875706 119.15792 15.550781 120.21961 15.550781 121.47461 C 15.550781 122.05384 15.646766 122.69267 15.839844 123.39258 L 16.455078 125.70898 L 20.400391 125.45703 C 24.141269 125.21568 26.820475 124.72083 28.4375 123.97266 C 30.054525 123.20034 31.38213 121.81177 32.419922 119.80859 C 32.999155 118.72253 33.289062 117.68484 33.289062 116.69531 C 33.289062 114.42665 31.538594 112.73715 28.039062 111.62695 C 25.963479 110.97531 24.286952 110.28654 23.007812 109.5625 C 21.752808 108.83846 21.125 108.21261 21.125 107.68164 C 21.125 106.49904 22.151675 105.09945 24.203125 103.48242 C 26.254574 101.8654 28.44995 101.05664 30.791016 101.05664 C 31.563326 101.05664 32.239127 101.17662 32.818359 101.41797 C 33.397593 101.65932 33.820456 101.92523 34.085938 102.21484 C 34.351419 102.48032 34.628353 102.73326 34.917969 102.97461 C 35.207585 103.21596 35.484518 103.33594 35.75 103.33594 C 36.015481 103.33594 36.2334 103.21596 36.402344 102.97461 C 36.571289 102.73326 36.680249 102.51534 36.728516 102.32227 C 36.776782 102.10505 36.800781 101.9241 36.800781 101.7793 C 36.800781 100.98285 36.401914 100.20005 35.605469 99.427734 C 35.074505 98.920906 34.544635 98.583005 34.013672 98.414062 C 33.482709 98.245119 32.649956 98.160156 31.515625 98.160156 z M 66.207031 104.89258 C 65.555395 104.89258 65.060542 105.38743 64.722656 106.37695 C 64.505444 107.05272 64.239532 108.94717 63.925781 112.06055 C 63.708569 114.25681 63.455632 116.36917 63.166016 118.39648 C 62.876399 120.4238 62.65848 121.95635 62.513672 122.99414 C 62.368863 124.0078 62.296875 124.76856 62.296875 125.27539 C 62.296875 125.66154 62.344868 125.99944 62.441406 126.28906 C 62.56208 126.57868 62.695036 126.79465 62.839844 126.93945 C 63.008786 127.08427 63.154717 127.1822 63.275391 127.23047 C 63.396064 127.30288 63.503071 127.33789 63.599609 127.33789 C 63.889226 127.33789 64.144116 127.08496 64.361328 126.57812 C 64.578541 126.09543 64.964433 125.03374 65.519531 123.39258 C 65.978091 121.99276 66.42495 120.88308 66.859375 120.0625 C 67.317934 119.24192 68.161708 117.93831 69.392578 116.15234 C 70.551043 114.46292 71.902644 112.81039 73.447266 111.19336 C 74.991886 109.57633 75.957595 108.76758 76.34375 108.76758 C 76.392019 108.76758 76.464008 108.81557 76.560547 108.91211 C 76.68122 108.98452 76.814176 109.17649 76.958984 109.49023 C 77.103792 109.77985 77.175781 110.14175 77.175781 110.57617 C 77.175781 112.55521 76.741896 115.47634 75.873047 119.33789 C 75.028332 123.17531 74.605469 125.14174 74.605469 125.23828 C 74.605469 125.74511 74.895376 126 75.474609 126 C 76.150381 126 76.656255 125.72112 76.994141 125.16602 C 77.332027 124.58678 77.669927 123.50109 78.007812 121.9082 C 79.407625 115.60904 80.109375 111.49327 80.109375 109.5625 C 80.109375 108.57297 79.86746 107.60922 79.384766 106.66797 C 78.902072 105.70258 78.226271 105.21875 77.357422 105.21875 C 76.030013 105.21875 74.111571 106.51134 71.601562 109.09375 C 70.298289 110.4453 69.380573 111.48299 68.849609 112.20703 C 68.318646 112.93107 67.629871 114.06476 66.785156 115.60938 L 66.134766 116.80469 L 66.533203 112.67773 C 66.895224 109.05753 67.076172 106.95619 67.076172 106.37695 C 67.076172 105.79772 67.004183 105.41183 66.859375 105.21875 C 66.738702 105.00154 66.520783 104.89258 66.207031 104.89258 z M 52.289062 105.83398 C 51.082328 105.83398 49.756676 106.08888 48.308594 106.5957 C 47.729361 106.81292 46.944601 107.07688 45.955078 107.39062 C 44.965555 107.70438 44.27678 107.93527 43.890625 108.08008 C 43.528604 108.22489 43.081745 108.42983 42.550781 108.69531 C 42.043953 108.93666 41.682056 109.21359 41.464844 109.52734 C 41.247632 109.81696 41.090679 110.16588 40.994141 110.57617 C 40.994141 110.60031 40.983118 110.63728 40.958984 110.68555 L 40.958984 110.75781 C 40.958984 111.19223 41.211921 111.41016 41.71875 111.41016 C 42.201444 111.41016 43.023175 111.18122 44.181641 110.72266 C 45.364241 110.23996 46.665896 109.76911 48.089844 109.31055 C 49.537926 108.85199 50.841534 108.62305 52 108.62305 C 52.941253 108.62305 53.412109 109.47979 53.412109 111.19336 C 53.412109 112.49663 53.183169 114.21013 52.724609 116.33398 C 52.483262 116.09264 52.182333 115.93568 51.820312 115.86328 C 51.796178 115.86328 51.674243 115.75432 51.457031 115.53711 C 51.263954 115.29576 50.963024 115.09082 50.552734 114.92188 C 50.142444 114.75293 49.5996 114.66797 48.923828 114.66797 C 47.355073 114.66797 45.604604 115.11483 43.673828 116.00781 C 41.839591 116.82839 40.476968 117.72015 39.583984 118.68555 C 38.691 119.65093 38.244141 121.00253 38.244141 122.74023 C 38.244141 123.65735 38.425089 124.28516 38.787109 124.62305 C 39.14913 124.9368 39.776938 125.20271 40.669922 125.41992 C 41.587041 125.63714 42.382822 125.74609 43.058594 125.74609 C 44.096386 125.74609 45.459008 125.3362 47.148438 124.51562 C 48.837866 123.67091 50.165471 122.80118 51.130859 121.9082 C 51.058455 122.92186 51.023437 123.51269 51.023438 123.68164 C 51.023437 125.15385 51.396355 125.89063 52.144531 125.89062 C 52.385878 125.89062 52.736753 125.6967 53.195312 125.31055 C 53.653872 124.90026 53.967776 124.41838 54.136719 123.86328 C 54.305661 122.22212 54.728525 119.69987 55.404297 116.29688 C 56.080068 112.89388 56.417969 110.86648 56.417969 110.21484 C 56.417969 109.75629 56.309009 109.21344 56.091797 108.58594 C 55.512564 106.7517 54.243973 105.83398 52.289062 105.83398 z M 123.09766 105.83398 C 121.48063 105.83398 119.6212 106.65571 117.52148 108.29688 C 115.42176 109.91389 113.95018 111.47044 113.10547 112.9668 C 112.26076 114.51142 111.83789 116.29691 111.83789 118.32422 C 111.83789 120.76183 112.56169 122.66924 114.00977 124.04492 C 115.45785 125.39646 117.18432 126.07227 119.1875 126.07227 C 122.05953 126.07227 125.08766 124.91263 128.27344 122.5957 C 129.2871 121.84752 130.23983 120.94279 131.13281 119.88086 C 132.04993 118.7948 132.50977 118.01004 132.50977 117.52734 C 132.50977 117.16532 132.32882 116.98437 131.9668 116.98438 C 131.60478 116.98438 130.95297 117.31126 130.01172 117.96289 C 129.0946 118.5904 128.13991 119.29019 127.15039 120.0625 C 126.185 120.83481 125.0403 121.54563 123.71289 122.19727 C 122.38548 122.82477 121.19083 123.13867 120.12891 123.13867 C 118.77736 123.13867 117.58271 122.6088 116.54492 121.54688 C 115.41059 120.41254 114.8418 119.27691 114.8418 118.14258 C 114.8418 117.9495 114.89174 117.58761 114.98828 117.05664 L 115.16797 116.11523 L 118.35352 115.9707 C 120.86352 115.8259 123.33778 115.52497 125.77539 115.06641 C 126.45116 114.94573 126.99401 114.83677 127.4043 114.74023 C 127.83872 114.64369 128.34655 114.49971 128.92578 114.30664 C 129.50501 114.08943 129.95188 113.85853 130.26562 113.61719 C 130.57938 113.37584 130.85631 113.06389 131.09766 112.67773 C 131.339 112.26745 131.45898 111.80761 131.45898 111.30078 C 131.45898 110.60087 131.24302 109.86606 130.80859 109.09375 C 130.39831 108.32144 129.90345 107.70465 129.32422 107.24609 C 128.72085 106.78753 128.16503 106.4866 127.6582 106.3418 C 127.15137 106.17285 126.25766 106.0399 124.97852 105.94336 C 124.1338 105.87096 123.50794 105.83398 123.09766 105.83398 z M 141.8457 106.125 C 141.55609 106.125 141.26814 106.23201 140.97852 106.44922 C 140.5441 106.78711 140.21721 107.18597 140 107.64453 C 139.80692 108.07896 139.62597 108.69379 139.45703 109.49023 C 139.04674 111.46928 138.64787 113.76259 138.26172 116.36914 C 137.87557 118.97569 137.58761 121.09907 137.39453 122.74023 C 137.22559 124.35725 137.14062 125.28795 137.14062 125.5293 C 137.14062 126.56709 137.56349 127.08594 138.4082 127.08594 C 139.01157 127.08594 139.55442 126.6741 140.03711 125.85352 C 140.54394 125.03294 141.27875 123.41737 142.24414 121.00391 C 143.01645 119.09726 144.48998 117.05689 146.66211 114.88477 C 148.85836 112.71265 150.75281 111.35002 152.3457 110.79492 C 153.62484 110.3605 154.26367 109.87666 154.26367 109.3457 C 154.26367 109.05608 154.13071 108.76618 153.86523 108.47656 C 153.59975 108.18694 153.16587 108.04297 152.5625 108.04297 C 151.3799 108.04297 149.83437 108.64678 147.92773 109.85352 C 146.02109 111.03612 144.46455 112.37475 143.25781 113.87109 C 142.82339 114.37793 142.45047 114.78782 142.13672 115.10156 L 142.13672 114.37891 C 142.13672 113.58246 142.14774 112.7977 142.17188 112.02539 C 142.22015 111.25308 142.26814 110.5883 142.31641 110.0332 C 142.38881 109.47811 142.44978 108.98325 142.49805 108.54883 C 142.57045 108.1144 142.61844 107.7765 142.64258 107.53516 C 142.69084 107.26968 142.71484 107.1257 142.71484 107.10156 C 142.71484 106.44992 142.42494 106.125 141.8457 106.125 z M 170.70312 106.30469 L 167.01172 106.63086 C 164.86373 107.06529 162.88433 108.10298 161.07422 109.74414 C 159.28825 111.36117 158.39453 112.68878 158.39453 113.72656 C 158.39453 114.61955 158.86539 115.4523 159.80664 116.22461 C 160.74789 116.97278 161.53266 117.41965 162.16016 117.56445 C 162.59458 117.66099 163.24638 117.90291 164.11523 118.28906 C 165.00821 118.65108 165.84097 118.95201 166.61328 119.19336 C 167.65107 119.53125 168.16992 120.11106 168.16992 120.93164 C 168.16992 121.41433 167.62708 122.23411 166.54102 123.39258 C 165.45496 124.55104 164.41725 125.13086 163.42773 125.13086 C 162.65542 125.13086 161.87067 124.91294 161.07422 124.47852 C 160.30191 124.01996 159.83106 123.53808 159.66211 123.03125 C 159.3725 122.18654 158.92563 121.76367 158.32227 121.76367 C 157.98438 121.76367 157.64648 121.96862 157.30859 122.37891 C 156.97071 122.76507 156.80273 123.27289 156.80273 123.90039 C 156.80273 124.47962 156.93569 125.03349 157.20117 125.56445 C 157.46666 126.09541 157.79158 126.47029 158.17773 126.6875 C 158.75697 126.97711 159.62669 127.21708 160.78516 127.41016 C 161.94362 127.62737 162.89636 127.73633 163.64453 127.73633 C 164.68232 127.73633 165.78099 127.30245 166.93945 126.43359 C 168.12205 125.58888 168.96583 124.7691 169.47266 123.97266 C 169.81054 123.46582 170.12445 122.80105 170.41406 121.98047 C 170.70368 121.13576 170.84961 120.44893 170.84961 119.91797 C 170.84961 118.95258 170.41378 118.16782 169.54492 117.56445 C 168.70021 116.96109 167.2416 116.3203 165.16602 115.64453 C 163.95928 115.25838 163.04156 114.84849 162.41406 114.41406 C 161.8107 113.9555 161.50781 113.56961 161.50781 113.25586 C 161.50781 112.96624 161.91965 112.48436 162.74023 111.80859 C 163.58495 111.10869 164.67064 110.45689 165.99805 109.85352 C 167.32546 109.22602 168.5201 108.91211 169.58203 108.91211 C 170.08886 108.91211 170.48773 109.00809 170.77734 109.20117 C 171.0911 109.37011 171.29604 109.56404 171.39258 109.78125 C 171.51325 109.97433 171.68122 110.1663 171.89844 110.35938 C 172.13978 110.52832 172.45369 110.61328 172.83984 110.61328 C 173.20186 110.61328 173.47879 110.50432 173.67188 110.28711 C 173.86495 110.0699 173.96289 109.82798 173.96289 109.5625 C 173.96289 109.05567 173.69698 108.41684 173.16602 107.64453 C 172.77986 107.0653 172.42899 106.7034 172.11523 106.55859 C 171.82561 106.38965 171.35476 106.30469 170.70312 106.30469 z M 124.47266 108.47656 C 125.07602 108.47656 125.53391 108.55051 125.84766 108.69531 C 126.16141 108.84012 126.63227 109.20202 127.25977 109.78125 L 127.69531 110.21484 C 128.00906 110.50446 128.22503 110.72238 128.3457 110.86719 C 128.46638 111.01199 128.52734 111.13198 128.52734 111.22852 C 128.52734 111.32506 128.47935 111.43401 128.38281 111.55469 C 128.31041 111.65123 128.12946 111.77121 127.83984 111.91602 C 127.55022 112.06082 127.18833 112.16978 126.75391 112.24219 C 122.4338 113.06277 119.10279 113.47266 116.76172 113.47266 C 116.44797 113.47266 116.24302 113.46163 116.14648 113.4375 C 116.26716 112.93067 117.4618 111.76001 119.73047 109.92578 C 120.47864 109.32241 121.15445 108.93652 121.75781 108.76758 C 122.36118 108.5745 123.26592 108.47656 124.47266 108.47656 z M 96.539062 109.5625 C 97.070026 109.5625 97.939749 109.97434 99.146484 110.79492 C 100.03947 111.42242 100.84823 112.29019 101.57227 113.40039 C 102.29631 114.48645 102.6582 115.3672 102.6582 116.04297 C 102.6582 116.57393 101.42659 117.70957 98.964844 119.44727 C 95.923871 121.61939 93.59554 122.70508 91.978516 122.70508 C 91.133801 122.70508 90.288074 122.48715 89.443359 122.05273 C 88.598645 121.61831 88.103792 121.23242 87.958984 120.89453 C 87.910718 120.70145 87.886719 120.48353 87.886719 120.24219 C 87.886719 119.54228 88.019675 118.58955 88.285156 117.38281 C 88.574773 116.17608 88.853659 115.36732 89.119141 114.95703 C 89.650105 114.20886 90.927763 113.12317 92.955078 111.69922 C 95.006528 110.27527 96.201177 109.5625 96.539062 109.5625 z M 47.619141 117.49219 C 48.560394 117.49219 49.310136 117.58818 49.865234 117.78125 C 50.444467 117.97433 50.793389 118.15528 50.914062 118.32422 C 51.05887 118.49317 51.130859 118.63714 51.130859 118.75781 C 51.130859 118.90262 50.636007 119.32548 49.646484 120.02539 C 48.681096 120.7253 48.162248 121.23312 48.089844 121.54688 L 47.222656 121.94531 C 46.619288 122.18666 45.882521 122.4396 45.013672 122.70508 C 44.168957 122.97056 43.480183 123.10352 42.949219 123.10352 C 42.587199 123.10352 42.177309 123.00558 41.71875 122.8125 C 41.284325 122.61942 41.066406 122.37946 41.066406 122.08984 C 41.066406 121.10032 41.646222 120.08661 42.804688 119.04883 C 43.963153 118.01103 45.567691 117.49219 47.619141 117.49219 z "
         style="font-style:italic;font-variant:normal;font-weight:bold;font-stretch:normal;font-size:36.20205307px;font-family:Purisa;-inkscape-font-specification:'Purisa Bold Italic';fill:#00dcd4;fill-opacity:1;stroke-width:0.18855235"
         id="path88"
         d="m 111.45508,90.123047 c -0.86885,0 -1.58162,0.470856 -2.13672,1.412109 -0.36202,0.579233 -1.19477,3.740319 -2.49805,9.484374 -1.27914,5.74406 -2.06194,9.02708 -2.35156,9.84766 -0.16894,-0.16894 -0.38686,-0.48285 -0.65234,-0.94141 -0.4827,-0.79645 -1.45942,-1.6292 -2.93164,-2.49805 -1.472221,-0.86885 -2.58386,-1.30273 -3.332036,-1.30273 -0.844714,0 -1.906407,0.28795 -3.185546,0.86719 -1.27914,0.5551 -2.59377,1.32884 -3.945313,2.31836 -1.327409,0.98952 -2.559029,2.29313 -3.693359,3.91015 -1.134332,1.61702 -1.895096,3.33052 -2.28125,5.14063 -0.168944,0.89298 -0.251954,1.59277 -0.251954,2.09961 0,1.08606 0.239963,2.02582 0.722657,2.82226 0.506828,0.77231 1.134636,1.35213 1.882812,1.73828 0.772311,0.36203 1.496104,0.62794 2.171875,0.79688 0.699907,0.16894 1.351711,0.25391 1.955078,0.25391 1.061927,0 2.149569,-0.16994 3.259766,-0.50782 1.110196,-0.33788 2.110922,-0.78474 3.003906,-1.33984 0.917119,-0.5551 1.701879,-1.06097 2.353516,-1.51953 0.675768,-0.4827 1.303578,-0.97755 1.882808,-1.48438 0.57924,-0.50683 0.88017,-0.77274 0.9043,-0.79687 v 0.18164 c 0,0.38616 -0.085,1.19491 -0.25391,2.42578 -0.16894,1.20673 -0.2539,2.0985 -0.2539,2.67773 0,1.49636 0.47085,2.24414 1.41211,2.24414 0.43442,0 0.82227,-0.16797 1.16015,-0.50585 0.36202,-0.31375 0.61496,-0.62766 0.75977,-0.94141 0.14481,-0.31375 0.25377,-0.61468 0.32617,-0.9043 0.0483,-0.24134 0.14426,-1.14608 0.28906,-2.71484 0.16894,-1.56875 0.65082,-4.22396 1.44727,-7.96484 l 5.68359,-24.798833 z m -79.939455,8.037109 c -2.582413,0 -4.40487,0.215966 -5.466797,0.650391 -2.196257,0.892981 -4.212638,2.305553 -6.046875,4.236333 -1.810103,1.90663 -2.714844,3.40222 -2.714844,4.48828 0,1.13433 0.930691,2.58387 2.789063,4.3457 1.882507,1.76183 3.426077,2.64258 4.632812,2.64258 0.627502,0.0724 1.641203,0.44532 3.041016,1.12109 0.868849,0.41029 1.424669,0.71318 1.666016,0.90625 0.265482,0.19308 0.398437,0.43499 0.398437,0.72461 0,0.19307 -0.03697,0.43304 -0.109375,0.72266 -0.193078,0.89298 -0.434993,1.50977 -0.724609,1.84765 -0.289617,0.33789 -0.965417,0.81977 -2.027344,1.44727 -0.675772,0.38616 -1.351572,0.65207 -2.027344,0.79687 -0.651637,0.12068 -1.628367,0.17969 -2.93164,0.17969 h -1.810547 c -0.337886,-0.0241 -0.638816,-0.0592 -0.904297,-0.10742 -0.265485,-0.0724 -0.422437,-0.15737 -0.470703,-0.25391 -0.04827,-0.0965 -0.109237,-0.26451 -0.181641,-0.50586 -0.0724,-0.21721 -0.107422,-0.39816 -0.107422,-0.54296 0,-0.19309 0.276933,-0.54396 0.832031,-1.05079 0.579233,-0.53096 0.869141,-1.1218 0.869141,-1.77343 0,-0.69991 -0.374871,-1.05079 -1.123047,-1.05078 -1.037792,0 -1.894541,0.43584 -2.570312,1.30468 -0.651638,0.86886 -0.976563,1.93055 -0.976563,3.18555 0,0.57923 0.09598,1.21806 0.289063,1.91797 l 0.615234,2.3164 3.945313,-0.25195 c 3.740878,-0.24135 6.420084,-0.7362 8.037109,-1.48437 1.617025,-0.77232 2.94463,-2.16089 3.982422,-4.16407 0.579233,-1.08606 0.86914,-2.12375 0.86914,-3.11328 0,-2.26866 -1.750468,-3.95816 -5.25,-5.06836 -2.075583,-0.65164 -3.75211,-1.34041 -5.03125,-2.06445 -1.255004,-0.72404 -1.882812,-1.34989 -1.882812,-1.88086 0,-1.1826 1.026675,-2.58219 3.078125,-4.19922 2.051449,-1.61702 4.246825,-2.42578 6.587891,-2.42578 0.77231,0 1.448111,0.11998 2.027343,0.36133 0.579234,0.24135 1.002097,0.50726 1.267579,0.79687 0.265481,0.26548 0.542415,0.51842 0.832031,0.75977 0.289616,0.24135 0.566549,0.36133 0.832031,0.36133 0.265481,0 0.4834,-0.11998 0.652344,-0.36133 0.168945,-0.24135 0.277905,-0.45927 0.326172,-0.65234 0.04827,-0.21722 0.07227,-0.39817 0.07227,-0.54297 0,-0.79645 -0.398867,-1.57925 -1.195312,-2.351566 -0.530964,-0.506828 -1.060834,-0.844729 -1.591797,-1.013672 -0.530963,-0.168943 -1.363716,-0.253906 -2.498047,-0.253906 z m 34.691406,6.732424 c -0.651636,0 -1.146489,0.49485 -1.484375,1.48437 -0.217212,0.67577 -0.483124,2.57022 -0.796875,5.6836 -0.217212,2.19626 -0.470149,4.30862 -0.759765,6.33593 -0.289617,2.02732 -0.507536,3.55987 -0.652344,4.59766 -0.144809,1.01366 -0.216797,1.77442 -0.216797,2.28125 0,0.38615 0.04799,0.72405 0.144531,1.01367 0.120674,0.28962 0.25363,0.50559 0.398438,0.65039 0.168942,0.14482 0.314873,0.24275 0.435547,0.29102 0.120673,0.0724 0.22768,0.10742 0.324218,0.10742 0.289617,0 0.544507,-0.25293 0.761719,-0.75977 0.217213,-0.48269 0.603105,-1.54438 1.158203,-3.18554 0.45856,-1.39982 0.905419,-2.5095 1.339844,-3.33008 0.458559,-0.82058 1.302333,-2.12419 2.533203,-3.91016 1.158465,-1.68942 2.510066,-3.34195 4.054688,-4.95898 1.54462,-1.61703 2.510329,-2.42578 2.896484,-2.42578 0.04827,0 0.120258,0.048 0.216797,0.14453 0.120673,0.0724 0.253629,0.26438 0.398437,0.57812 0.144808,0.28962 0.216797,0.65152 0.216797,1.08594 0,1.97904 -0.433885,4.90017 -1.302734,8.76172 -0.844715,3.83742 -1.267578,5.80385 -1.267578,5.90039 0,0.50683 0.289907,0.76172 0.86914,0.76172 0.675772,0 1.181646,-0.27888 1.519532,-0.83398 0.337886,-0.57924 0.675786,-1.66493 1.013671,-3.25782 1.399813,-6.29916 2.101563,-10.41493 2.101563,-12.3457 0,-0.98953 -0.241915,-1.95328 -0.724609,-2.89453 -0.482694,-0.96539 -1.158495,-1.44922 -2.027344,-1.44922 -1.327409,0 -3.245851,1.29259 -5.75586,3.875 -1.303273,1.35155 -2.220989,2.38924 -2.751953,3.11328 -0.530963,0.72404 -1.219738,1.85773 -2.064453,3.40235 l -0.65039,1.19531 0.398437,-4.12696 c 0.362021,-3.6202 0.542969,-5.72154 0.542969,-6.30078 0,-0.57923 -0.07199,-0.96512 -0.216797,-1.1582 -0.120673,-0.21721 -0.338592,-0.32617 -0.652344,-0.32617 z m -13.917969,0.9414 c -1.206734,0 -2.532386,0.2549 -3.980468,0.76172 -0.579233,0.21722 -1.363993,0.48118 -2.353516,0.79492 -0.989523,0.31376 -1.678298,0.54465 -2.064453,0.68946 -0.362021,0.14481 -0.80888,0.34975 -1.339844,0.61523 -0.506828,0.24135 -0.868725,0.51828 -1.085937,0.83203 -0.217212,0.28962 -0.374165,0.63854 -0.470703,1.04883 0,0.0241 -0.01102,0.0611 -0.03516,0.10938 v 0.0723 c 0,0.43442 0.252937,0.65235 0.759766,0.65235 0.482694,0 1.304425,-0.22894 2.462891,-0.6875 1.1826,-0.4827 2.484255,-0.95355 3.908203,-1.41211 1.448082,-0.45856 2.75169,-0.6875 3.910156,-0.6875 0.941253,0 1.412109,0.85674 1.412109,2.57031 0,1.30327 -0.22894,3.01677 -0.6875,5.14062 -0.241347,-0.24134 -0.542276,-0.3983 -0.904297,-0.4707 -0.02413,0 -0.146069,-0.10896 -0.363281,-0.32617 -0.193077,-0.24135 -0.494007,-0.44629 -0.904297,-0.61523 -0.41029,-0.16895 -0.953134,-0.25391 -1.628906,-0.25391 -1.568755,0 -3.319224,0.44686 -5.25,1.33984 -1.834237,0.82058 -3.19686,1.71234 -4.089844,2.67774 -0.892984,0.96538 -1.339843,2.31698 -1.339843,4.05468 0,0.91712 0.180948,1.54493 0.542968,1.88282 0.362021,0.31375 0.989829,0.57966 1.882813,0.79687 0.917119,0.21722 1.7129,0.32617 2.388672,0.32617 1.037792,0 2.400414,-0.40989 4.089844,-1.23047 1.689428,-0.84471 3.017033,-1.71444 3.982421,-2.60742 -0.0724,1.01366 -0.107422,1.60449 -0.107421,1.77344 -10e-7,1.47221 0.372917,2.20899 1.121093,2.20898 0.241347,0 0.592222,-0.19392 1.050781,-0.58007 0.45856,-0.41029 0.772464,-0.89217 0.941407,-1.44727 0.168942,-1.64116 0.591806,-4.16341 1.267578,-7.5664 0.675771,-3.403 1.013672,-5.4304 1.013672,-6.08204 0,-0.45855 -0.10896,-1.0014 -0.326172,-1.6289 -0.579233,-1.83424 -1.847824,-2.75196 -3.802735,-2.75196 z m 70.808598,0 c -1.61703,0 -3.47646,0.82173 -5.57618,2.4629 -2.09972,1.61701 -3.5713,3.17356 -4.41601,4.66992 -0.84471,1.54462 -1.26758,3.33011 -1.26758,5.35742 0,2.43761 0.7238,4.34502 2.17188,5.7207 1.44808,1.35154 3.17455,2.02735 5.17773,2.02735 2.87203,0 5.90016,-1.15964 9.08594,-3.47657 1.01366,-0.74818 1.96639,-1.65291 2.85937,-2.71484 0.91712,-1.08606 1.37696,-1.87082 1.37696,-2.35352 0,-0.36202 -0.18095,-0.54297 -0.54297,-0.54296 -0.36202,0 -1.01383,0.32688 -1.95508,0.97851 -0.91712,0.62751 -1.87181,1.3273 -2.86133,2.09961 -0.96539,0.77231 -2.11009,1.48313 -3.4375,2.13477 -1.32741,0.6275 -2.52206,0.9414 -3.58398,0.9414 -1.35155,0 -2.5462,-0.52987 -3.58399,-1.59179 -1.13433,-1.13434 -1.70312,-2.26997 -1.70312,-3.4043 0,-0.19308 0.0499,-0.55497 0.14648,-1.08594 l 0.17969,-0.94141 3.18555,-0.14453 c 2.51,-0.1448 4.98426,-0.44573 7.42187,-0.90429 0.67577,-0.12068 1.21862,-0.22964 1.62891,-0.32618 0.43442,-0.0965 0.94225,-0.24052 1.52148,-0.43359 0.57923,-0.21721 1.0261,-0.44811 1.33984,-0.68945 0.31376,-0.24135 0.59069,-0.5533 0.83204,-0.93946 0.24134,-0.41028 0.36132,-0.87012 0.36132,-1.37695 0,-0.69991 -0.21596,-1.43472 -0.65039,-2.20703 -0.41028,-0.77231 -0.90514,-1.3891 -1.48437,-1.84766 -0.60337,-0.45856 -1.15919,-0.75949 -1.66602,-0.90429 -0.50683,-0.16895 -1.40054,-0.3019 -2.67968,-0.39844 -0.84472,-0.0724 -1.47058,-0.10938 -1.88086,-0.10938 z m 18.74804,0.29102 c -0.28961,0 -0.57756,0.10701 -0.86718,0.32422 -0.43442,0.33789 -0.76131,0.73675 -0.97852,1.19531 -0.19308,0.43443 -0.37403,1.04926 -0.54297,1.8457 -0.41029,1.97905 -0.80916,4.27236 -1.19531,6.87891 -0.38615,2.60655 -0.67411,4.72993 -0.86719,6.37109 -0.16894,1.61702 -0.25391,2.54772 -0.25391,2.78907 0,1.03779 0.42287,1.55664 1.26758,1.55664 0.60337,0 1.14622,-0.41184 1.62891,-1.23242 0.50683,-0.82058 1.24164,-2.43615 2.20703,-4.84961 0.77231,-1.90665 2.24584,-3.94702 4.41797,-6.11914 2.19625,-2.17212 4.0907,-3.53475 5.68359,-4.08985 1.27914,-0.43442 1.91797,-0.91826 1.91797,-1.44922 0,-0.28962 -0.13296,-0.57952 -0.39844,-0.86914 -0.26548,-0.28962 -0.69936,-0.43359 -1.30273,-0.43359 -1.1826,0 -2.72813,0.60381 -4.63477,1.81055 -1.90664,1.1826 -3.46318,2.52123 -4.66992,4.01757 -0.43442,0.50684 -0.80734,0.91673 -1.12109,1.23047 v -0.72265 c 0,-0.79645 0.011,-1.58121 0.0352,-2.35352 0.0483,-0.77231 0.0963,-1.43709 0.14453,-1.99219 0.0724,-0.55509 0.13337,-1.04995 0.18164,-1.48437 0.0724,-0.43443 0.12039,-0.77233 0.14453,-1.01367 0.0483,-0.26548 0.0723,-0.40946 0.0723,-0.4336 0,-0.65164 -0.2899,-0.97656 -0.86914,-0.97656 z m 28.85742,0.17969 -3.6914,0.32617 c -2.14799,0.43443 -4.12739,1.47212 -5.9375,3.11328 -1.78597,1.61703 -2.67969,2.94464 -2.67969,3.98242 0,0.89299 0.47086,1.72574 1.41211,2.49805 0.94125,0.74817 1.72602,1.19504 2.35352,1.33984 0.43442,0.0965 1.08622,0.33846 1.95507,0.72461 0.89298,0.36202 1.72574,0.66295 2.49805,0.9043 1.03779,0.33789 1.55664,0.9177 1.55664,1.73828 0,0.48269 -0.54284,1.30247 -1.6289,2.46094 -1.08606,1.15846 -2.12377,1.73828 -3.11329,1.73828 -0.77231,0 -1.55706,-0.21792 -2.35351,-0.65234 -0.77231,-0.45856 -1.24316,-0.94044 -1.41211,-1.44727 -0.28961,-0.84471 -0.73648,-1.26758 -1.33984,-1.26758 -0.33789,0 -0.67579,0.20495 -1.01368,0.61524 -0.33788,0.38616 -0.50586,0.89398 -0.50586,1.52148 0,0.57923 0.13296,1.1331 0.39844,1.66406 0.26549,0.53096 0.59041,0.90584 0.97656,1.12305 0.57924,0.28961 1.44896,0.52958 2.60743,0.72266 1.15846,0.21721 2.1112,0.32617 2.85937,0.32617 1.03779,0 2.13646,-0.43388 3.29492,-1.30274 1.1826,-0.84471 2.02638,-1.66449 2.53321,-2.46093 0.33788,-0.50684 0.65179,-1.17161 0.9414,-1.99219 0.28962,-0.84471 0.43555,-1.53154 0.43555,-2.0625 0,-0.96539 -0.43583,-1.75015 -1.30469,-2.35352 -0.84471,-0.60336 -2.30332,-1.24415 -4.3789,-1.91992 -1.20674,-0.38615 -2.12446,-0.79604 -2.75196,-1.23047 -0.60336,-0.45856 -0.90625,-0.84445 -0.90625,-1.1582 0,-0.28962 0.41184,-0.7715 1.23242,-1.44727 0.84472,-0.6999 1.93041,-1.3517 3.25782,-1.95507 1.32741,-0.6275 2.52205,-0.94141 3.58398,-0.94141 0.50683,0 0.9057,0.096 1.19531,0.28906 0.31376,0.16894 0.5187,0.36287 0.61524,0.58008 0.12067,0.19308 0.28864,0.38505 0.50586,0.57813 0.24134,0.16894 0.55525,0.2539 0.9414,0.2539 0.36202,0 0.63895,-0.10896 0.83204,-0.32617 0.19307,-0.21721 0.29101,-0.45913 0.29101,-0.72461 0,-0.50683 -0.26591,-1.14566 -0.79687,-1.91797 -0.38616,-0.57923 -0.73703,-0.94113 -1.05079,-1.08594 -0.28962,-0.16894 -0.76047,-0.2539 -1.41211,-0.2539 z m -46.23046,2.17187 c 0.60336,0 1.06125,0.0739 1.375,0.21875 0.31375,0.14481 0.78461,0.50671 1.41211,1.08594 l 0.43554,0.43359 c 0.31375,0.28962 0.52972,0.50754 0.65039,0.65235 0.12068,0.1448 0.18164,0.26479 0.18164,0.36133 0,0.0965 -0.048,0.20549 -0.14453,0.32617 -0.0724,0.0965 -0.25335,0.21652 -0.54297,0.36133 -0.28962,0.1448 -0.65151,0.25376 -1.08593,0.32617 -4.32011,0.82058 -7.65112,1.23047 -9.99219,1.23047 -0.31375,0 -0.5187,-0.011 -0.61524,-0.0352 0.12068,-0.50683 1.31532,-1.67749 3.58399,-3.51172 0.74817,-0.60337 1.42398,-0.98926 2.02734,-1.1582 0.60337,-0.19308 1.50811,-0.29102 2.71485,-0.29102 z m -27.933598,1.08594 c 0.530964,0 1.400687,0.41184 2.607422,1.23242 0.892986,0.6275 1.701746,1.49527 2.425786,2.60547 0.72404,1.08606 1.08593,1.96681 1.08593,2.64258 0,0.53096 -1.23161,1.6666 -3.693356,3.4043 -3.040973,2.17212 -5.369304,3.25781 -6.986328,3.25781 -0.844715,0 -1.690442,-0.21793 -2.535157,-0.65235 -0.844714,-0.43442 -1.339567,-0.82031 -1.484375,-1.1582 -0.04827,-0.19308 -0.07227,-0.411 -0.07227,-0.65234 0,-0.69991 0.132956,-1.65264 0.398437,-2.85938 0.289617,-1.20673 0.568503,-2.01549 0.833985,-2.42578 0.530964,-0.74817 1.808622,-1.83386 3.835937,-3.25781 2.05145,-1.42395 3.246099,-2.13672 3.583984,-2.13672 z m -48.919921,7.92969 c 0.941253,0 1.690995,0.096 2.246093,0.28906 0.579233,0.19308 0.928155,0.37403 1.048828,0.54297 0.144808,0.16895 0.216797,0.31292 0.216797,0.43359 0,0.14481 -0.494852,0.56767 -1.484375,1.26758 -0.965388,0.69991 -1.484236,1.20773 -1.55664,1.52149 l -0.867188,0.39843 c -0.603368,0.24135 -1.340135,0.49429 -2.208984,0.75977 -0.844715,0.26548 -1.533489,0.39844 -2.064453,0.39844 -0.36202,0 -0.77191,-0.0979 -1.230469,-0.29102 -0.434425,-0.19308 -0.652344,-0.43304 -0.652344,-0.72266 0,-0.98952 0.579816,-2.00323 1.738282,-3.04101 1.158465,-1.0378 2.763003,-1.55664 4.814453,-1.55664 z" />
    </g>
    <g
       aria-label="Justin"
       style="font-style:normal;font-variant:normal;font-weight:normal;font-stretch:normal;font-size:36.20205307px;line-height:1.25;font-family:'Ubuntu Mono';-inkscape-font-specification:'Ubuntu Mono';letter-spacing:0px;word-spacing:0px;fill:url(#linearGradient5096);fill-opacity:1;stroke:none;stroke-width:0.18855235"
       id="text3682">
      <path
         sodipodi:type="inkscape:offset"
         inkscape:radius="0"
         inkscape:original="M 111 90.173828 C 110.22769 90.173828 109.56487 90.426765 109.00977 90.933594 C 108.47881 91.440422 108.21289 92.140219 108.21289 93.033203 C 108.21289 93.902052 108.47881 94.588874 109.00977 95.095703 C 109.56487 95.602532 110.22769 95.857422 111 95.857422 C 111.77231 95.857422 112.43709 95.602532 112.99219 95.095703 C 113.54729 94.588874 113.82422 93.902052 113.82422 93.033203 C 113.82422 92.140219 113.54729 91.440422 112.99219 90.933594 C 112.43709 90.426765 111.77231 90.173828 111 90.173828 z M 35.011719 92.525391 L 35.011719 96.21875 L 42.505859 96.21875 L 42.505859 107.1875 C 42.505859 108.85279 42.143963 109.99945 41.419922 110.62695 C 40.720015 111.23033 39.791278 111.53125 38.632812 111.53125 C 37.860502 111.53125 37.099738 111.3503 36.351562 110.98828 C 35.627522 110.62625 34.964696 110.25334 34.361328 109.86719 L 32.658203 113.41406 C 33.358109 113.96916 34.214858 114.44002 35.228516 114.82617 C 36.242173 115.21233 37.510764 115.40625 39.03125 115.40625 C 40.479332 115.40625 41.708998 115.20131 42.722656 114.79102 C 43.736314 114.35659 44.558045 113.77677 45.185547 113.05273 C 45.837184 112.32869 46.295066 111.48296 46.560547 110.51758 C 46.850164 109.55219 46.994141 108.52747 46.994141 107.44141 L 46.994141 92.525391 L 35.011719 92.525391 z M 95.070312 92.923828 L 90.619141 93.648438 L 90.619141 97.919922 L 86.744141 97.919922 L 86.744141 101.61328 L 90.619141 101.61328 L 90.619141 108.59961 C 90.619141 110.02356 90.763118 111.18123 91.052734 112.07422 C 91.34235 112.94307 91.765214 113.61887 92.320312 114.10156 C 92.875411 114.58426 93.551212 114.91113 94.347656 115.08008 C 95.144102 115.24902 96.059864 115.33398 97.097656 115.33398 C 97.99064 115.33398 98.908355 115.26004 99.849609 115.11523 C 100.815 114.97043 101.70872 114.73046 102.5293 114.39258 L 101.91406 110.55469 C 101.50378 110.74777 101.11789 110.90472 100.75586 111.02539 C 100.41798 111.14606 100.08008 111.24205 99.742188 111.31445 C 99.428437 111.36273 99.090536 111.39969 98.728516 111.42383 C 98.39063 111.44796 98.015759 111.45898 97.605469 111.45898 C 97.219313 111.45898 96.868438 111.42396 96.554688 111.35156 C 96.240936 111.27916 95.976978 111.13323 95.759766 110.91602 C 95.542553 110.6988 95.372626 110.39787 95.251953 110.01172 C 95.13128 109.62557 95.070313 109.11774 95.070312 108.49023 L 95.070312 101.61328 L 102.20312 101.61328 L 102.20312 97.919922 L 95.070312 97.919922 L 95.070312 92.923828 z M 77.005859 97.486328 C 75.72672 97.486328 74.630009 97.630306 73.712891 97.919922 C 72.795772 98.185404 72.035008 98.571296 71.431641 99.078125 C 70.852408 99.560819 70.418523 100.12766 70.128906 100.7793 C 69.863424 101.4068 69.730469 102.0826 69.730469 102.80664 C 69.730469 103.69963 69.911417 104.44937 70.273438 105.05273 C 70.635458 105.63197 71.093339 106.11385 71.648438 106.5 C 72.203536 106.88615 72.818369 107.21108 73.494141 107.47656 C 74.169912 107.71791 74.834691 107.93583 75.486328 108.12891 C 75.944887 108.27372 76.378772 108.41965 76.789062 108.56445 C 77.223487 108.70926 77.598359 108.86426 77.912109 109.0332 C 78.249995 109.17802 78.502932 109.36091 78.671875 109.57812 C 78.864953 109.79533 78.960938 110.05929 78.960938 110.37305 C 78.960938 110.85574 78.67103 111.18262 78.091797 111.35156 C 77.512564 111.49637 76.679811 111.56836 75.59375 111.56836 C 74.604227 111.56836 73.627497 111.42439 72.662109 111.13477 C 71.720856 110.84515 70.827137 110.53125 69.982422 110.19336 L 69.294922 113.92188 C 69.922424 114.18736 70.755177 114.48829 71.792969 114.82617 C 72.830761 115.16406 74.086377 115.33398 75.558594 115.33398 C 77.006676 115.33398 78.225321 115.20103 79.214844 114.93555 C 80.204366 114.67007 81.000148 114.30817 81.603516 113.84961 C 82.231018 113.39105 82.677877 112.8482 82.943359 112.2207 C 83.208841 111.5932 83.341797 110.92842 83.341797 110.22852 C 83.341797 109.33554 83.160849 108.58775 82.798828 107.98438 C 82.436808 107.35687 81.965952 106.84904 81.386719 106.46289 C 80.831621 106.0526 80.203812 105.7147 79.503906 105.44922 C 78.804 105.18374 78.128199 104.94378 77.476562 104.72656 C 77.018003 104.58176 76.584118 104.43582 76.173828 104.29102 C 75.787673 104.12207 75.436798 103.9541 75.123047 103.78516 C 74.833431 103.61621 74.593469 103.43526 74.400391 103.24219 C 74.231448 103.02497 74.146484 102.78306 74.146484 102.51758 C 74.146484 102.20383 74.340407 101.91392 74.726562 101.64844 C 75.136852 101.35882 75.908638 101.21484 77.042969 101.21484 C 78.12903 101.21484 79.10576 101.35882 79.974609 101.64844 C 80.843459 101.91392 81.484241 102.10784 81.894531 102.22852 L 82.582031 98.462891 C 81.882125 98.149139 81.049373 97.907224 80.083984 97.738281 C 79.142731 97.569339 78.116055 97.486328 77.005859 97.486328 z M 130.69336 97.558594 C 129.31768 97.558594 128.04002 97.654579 126.85742 97.847656 C 125.69896 98.040734 124.72027 98.245678 123.92383 98.462891 L 123.92383 114.93555 L 128.37695 114.93555 L 128.37695 101.57617 C 128.73897 101.52791 129.07688 101.49288 129.39062 101.46875 C 129.72851 101.44462 130.06641 101.43164 130.4043 101.43164 C 131.51449 101.43164 132.25125 101.78252 132.61328 102.48242 C 132.9753 103.18233 133.15625 104.32703 133.15625 105.91992 L 133.15625 114.93555 L 137.60938 114.93555 L 137.60938 105.3418 C 137.60938 104.18333 137.50042 103.13266 137.2832 102.19141 C 137.06599 101.22601 136.69112 100.40624 136.16016 99.730469 C 135.65332 99.030562 134.95353 98.498739 134.06055 98.136719 C 133.16756 97.750564 132.0449 97.558594 130.69336 97.558594 z M 51.375 97.919922 L 51.375 107.4043 C 51.375 108.56276 51.470985 109.62641 51.664062 110.5918 C 51.85714 111.55718 52.208015 112.40095 52.714844 113.125 C 53.245808 113.82491 53.958579 114.36775 54.851562 114.75391 C 55.744546 115.14006 56.889249 115.33398 58.289062 115.33398 C 59.664741 115.33398 60.933332 115.22503 62.091797 115.00781 C 63.274398 114.7906 64.275124 114.57268 65.095703 114.35547 L 65.095703 97.919922 L 60.607422 97.919922 L 60.607422 111.2793 C 59.93165 111.39997 59.255849 111.45898 58.580078 111.45898 C 57.494017 111.45898 56.757249 111.08606 56.371094 110.33789 C 56.009073 109.56558 55.828125 108.39493 55.828125 106.82617 L 55.828125 97.919922 L 51.375 97.919922 z M 104.8457 97.919922 L 104.8457 101.61328 L 109.55273 101.61328 L 109.55273 107.875 C 109.55273 109.0576 109.64872 110.10827 109.8418 111.02539 C 110.03488 111.94251 110.3598 112.72727 110.81836 113.37891 C 111.30105 114.00641 111.92887 114.48829 112.70117 114.82617 C 113.49762 115.16406 114.4763 115.33398 115.63477 115.33398 C 116.31054 115.33398 117.04535 115.24902 117.8418 115.08008 C 118.66238 114.93527 119.53211 114.64536 120.44922 114.21094 L 119.86914 110.62695 C 119.1451 110.96484 118.4933 111.19378 117.91406 111.31445 C 117.33483 111.41099 116.83997 111.45898 116.42969 111.45898 C 115.56083 111.45898 114.93498 111.21902 114.54883 110.73633 C 114.18681 110.2295 114.00586 109.46874 114.00586 108.45508 L 114.00586 97.919922 L 104.8457 97.919922 z "
         style="font-style:normal;font-variant:normal;font-weight:bold;font-stretch:normal;font-size:36.20205307px;font-family:'Ubuntu Mono';-inkscape-font-specification:'Ubuntu Mono Bold';fill:url(#linearGradient72);fill-opacity:1;stroke-width:0.18855235"
         id="path68"
         d="m 111,90.173828 c -0.77231,0 -1.43513,0.252937 -1.99023,0.759766 -0.53096,0.506828 -0.79688,1.206625 -0.79688,2.099609 0,0.868849 0.26592,1.555671 0.79688,2.0625 0.5551,0.506829 1.21792,0.761719 1.99023,0.761719 0.77231,0 1.43709,-0.25489 1.99219,-0.761719 0.5551,-0.506829 0.83203,-1.193651 0.83203,-2.0625 0,-0.892984 -0.27693,-1.592781 -0.83203,-2.099609 -0.5551,-0.506829 -1.21988,-0.759766 -1.99219,-0.759766 z m -75.988281,2.351563 v 3.693359 h 7.49414 v 10.96875 c 0,1.66529 -0.361896,2.81195 -1.085937,3.43945 -0.699907,0.60338 -1.628644,0.9043 -2.78711,0.9043 -0.77231,0 -1.533074,-0.18095 -2.28125,-0.54297 -0.72404,-0.36203 -1.386866,-0.73494 -1.990234,-1.12109 l -1.703125,3.54687 c 0.699906,0.5551 1.556655,1.02596 2.570313,1.41211 1.013657,0.38616 2.282248,0.58008 3.802734,0.58008 1.448082,0 2.677748,-0.20494 3.691406,-0.61523 1.013658,-0.43443 1.835389,-1.01425 2.462891,-1.73829 0.651637,-0.72404 1.109519,-1.56977 1.375,-2.53515 0.289617,-0.96539 0.433594,-1.99011 0.433594,-3.07617 V 92.525391 Z m 60.058593,0.398437 -4.451171,0.72461 v 4.271484 h -3.875 v 3.693358 h 3.875 v 6.98633 c 0,1.42395 0.143977,2.58162 0.433593,3.47461 0.289616,0.86885 0.71248,1.54465 1.267578,2.02734 0.555099,0.4827 1.2309,0.80957 2.027344,0.97852 0.796446,0.16894 1.712208,0.2539 2.75,0.2539 0.892984,0 1.810699,-0.0739 2.751953,-0.21875 0.965391,-0.1448 1.859111,-0.38477 2.679691,-0.72265 l -0.61524,-3.83789 c -0.41028,0.19308 -0.79617,0.35003 -1.1582,0.4707 -0.33788,0.12067 -0.67578,0.21666 -1.013672,0.28906 -0.313751,0.0483 -0.651652,0.0852 -1.013672,0.10938 -0.337886,0.0241 -0.712757,0.0352 -1.123047,0.0352 -0.386156,0 -0.737031,-0.035 -1.050781,-0.10742 -0.313752,-0.0724 -0.57771,-0.21833 -0.794922,-0.43554 -0.217213,-0.21722 -0.38714,-0.51815 -0.507813,-0.9043 -0.120673,-0.38615 -0.18164,-0.89398 -0.181641,-1.52149 v -6.87695 h 7.132808 v -3.693358 h -7.132808 z m -18.064453,4.5625 c -1.279139,0 -2.37585,0.143978 -3.292968,0.433594 -0.917119,0.265482 -1.677883,0.651374 -2.28125,1.158203 -0.579233,0.482694 -1.013118,1.049535 -1.302735,1.701175 -0.265482,0.6275 -0.398437,1.3033 -0.398437,2.02734 0,0.89299 0.180948,1.64273 0.542969,2.24609 0.36202,0.57924 0.819901,1.06112 1.375,1.44727 0.555098,0.38615 1.169931,0.71108 1.845703,0.97656 0.675771,0.24135 1.34055,0.45927 1.992187,0.65235 0.458559,0.14481 0.892444,0.29074 1.302734,0.43554 0.434425,0.14481 0.809297,0.29981 1.123047,0.46875 0.337886,0.14482 0.590823,0.32771 0.759766,0.54492 0.193078,0.21721 0.289063,0.48117 0.289063,0.79493 0,0.48269 -0.289908,0.80957 -0.869141,0.97851 -0.579233,0.14481 -1.411986,0.2168 -2.498047,0.2168 -0.989523,0 -1.966253,-0.14397 -2.931641,-0.43359 -0.941253,-0.28962 -1.834972,-0.60352 -2.679687,-0.94141 l -0.6875,3.72852 c 0.627502,0.26548 1.460255,0.56641 2.498047,0.90429 1.037792,0.33789 2.293408,0.50781 3.765625,0.50781 1.448082,0 2.666727,-0.13295 3.65625,-0.39843 0.989522,-0.26548 1.785304,-0.62738 2.388672,-1.08594 0.627502,-0.45856 1.074361,-1.00141 1.339843,-1.62891 0.265482,-0.6275 0.398438,-1.29228 0.398438,-1.99218 0,-0.89298 -0.180948,-1.64077 -0.542969,-2.24414 -0.36202,-0.62751 -0.832876,-1.13534 -1.412109,-1.52149 -0.555098,-0.41029 -1.182907,-0.74819 -1.882813,-1.01367 -0.699906,-0.26548 -1.375707,-0.50544 -2.027344,-0.72266 -0.458559,-0.1448 -0.892444,-0.29074 -1.302734,-0.43554 -0.386155,-0.16895 -0.73703,-0.33692 -1.050781,-0.50586 -0.289616,-0.16895 -0.529578,-0.3499 -0.722656,-0.54297 -0.168943,-0.21722 -0.253907,-0.45913 -0.253907,-0.72461 0,-0.31375 0.193923,-0.60366 0.580078,-0.86914 0.41029,-0.28962 1.182076,-0.4336 2.316407,-0.4336 1.086061,0 2.062791,0.14398 2.93164,0.4336 0.86885,0.26548 1.509632,0.4594 1.919922,0.58008 l 0.6875,-3.765629 c -0.699906,-0.313752 -1.532658,-0.555667 -2.498047,-0.72461 -0.941253,-0.168942 -1.967929,-0.251953 -3.078125,-0.251953 z m 53.687501,0.07227 c -1.37568,0 -2.65334,0.09598 -3.83594,0.289062 -1.15846,0.193078 -2.13715,0.398022 -2.93359,0.615235 v 16.472659 h 4.45312 v -13.35938 c 0.36202,-0.0483 0.69993,-0.0833 1.01367,-0.10742 0.33789,-0.0241 0.67579,-0.0371 1.01368,-0.0371 1.11019,0 1.84695,0.35088 2.20898,1.05078 0.36202,0.69991 0.54297,1.84461 0.54297,3.4375 v 9.01563 h 4.45313 v -9.59375 c 0,-1.15847 -0.10896,-2.20914 -0.32618,-3.15039 -0.21721,-0.9654 -0.59208,-1.78517 -1.12304,-2.460941 -0.50684,-0.699907 -1.20663,-1.23173 -2.09961,-1.59375 -0.89299,-0.386155 -2.01565,-0.578125 -3.36719,-0.578125 z M 51.375,97.919922 v 9.484378 c 0,1.15846 0.09598,2.22211 0.289062,3.1875 0.193078,0.96538 0.543953,1.80915 1.050782,2.5332 0.530964,0.69991 1.243735,1.24275 2.136718,1.62891 0.892984,0.38615 2.037687,0.58007 3.4375,0.58007 1.375679,0 2.64427,-0.10895 3.802735,-0.32617 1.182601,-0.21721 2.183327,-0.43513 3.003906,-0.65234 V 97.919922 H 60.607422 V 111.2793 c -0.675772,0.12067 -1.351573,0.17968 -2.027344,0.17968 -1.086061,0 -1.822829,-0.37292 -2.208984,-1.12109 -0.362021,-0.77231 -0.542969,-1.94296 -0.542969,-3.51172 v -8.906248 z m 53.4707,0 v 3.693358 h 4.70703 v 6.26172 c 0,1.1826 0.096,2.23327 0.28907,3.15039 0.19308,0.91712 0.518,1.70188 0.97656,2.35352 0.48269,0.6275 1.11051,1.10938 1.88281,1.44726 0.79645,0.33789 1.77513,0.50781 2.9336,0.50781 0.67577,0 1.41058,-0.085 2.20703,-0.2539 0.82058,-0.14481 1.69031,-0.43472 2.60742,-0.86914 l -0.58008,-3.58399 c -0.72404,0.33789 -1.37584,0.56683 -1.95508,0.6875 -0.57923,0.0965 -1.07409,0.14453 -1.48437,0.14453 -0.86886,0 -1.49471,-0.23996 -1.88086,-0.72265 -0.36202,-0.50683 -0.54297,-1.26759 -0.54297,-2.28125 V 97.919922 Z" />
    </g>
    <flowRoot
       xml:space="preserve"
       id="flowRoot15652"
       style="font-style:normal;font-weight:normal;font-size:40px;line-height:1.25;font-family:sans-serif;letter-spacing:0px;word-spacing:0px;fill:#000000;fill-opacity:1;stroke:none"
       transform="scale(0.26458333)"><flowRegion
         id="flowRegion15654"><rect
           id="rect15656"
           width="320"
           height="302.85715"
           x="760"
           y="236.8054" /></flowRegion><flowPara
         id="flowPara15658" /></flowRoot>    <flowRoot
       xml:space="preserve"
       id="flowRoot15660"
       style="font-style:normal;font-weight:normal;font-size:40px;line-height:1.25;font-family:sans-serif;letter-spacing:0px;word-spacing:0px;fill:#000000;fill-opacity:1;stroke:none"
       transform="scale(0.26458333)"><flowRegion
         id="flowRegion15662"><rect
           id="rect15664"
           width="982.85712"
           height="228.57143"
           x="194.28572"
           y="288.23398" /></flowRegion><flowPara
         id="flowPara15666" /></flowRoot>  </g>
</svg>
